<svg width="119" height="222" viewBox="0 0 119 222" fill="none" xmlns="http://www.w3.org/2000/svg">
<path d="M68.9238 39.7494C67.6061 38.8371 66.2716 37.9249 64.9202 37.0296C64.5485 36.7762 64.4302 36.2694 64.6836 35.8977C64.937 35.5261 65.4438 35.4078 65.8155 35.6612C67.1838 36.5566 68.5352 37.4688 69.8529 38.3979C70.2246 38.6513 70.326 39.175 70.0557 39.5466C69.9036 39.7831 69.6333 39.9014 69.3799 39.9014C69.211 39.9014 69.0589 39.8507 68.9069 39.7494H68.9238ZM61.7273 33.009C60.359 32.1475 58.9738 31.2859 57.5716 30.4413C57.1831 30.2048 56.6763 30.323 56.4398 30.7284C56.2033 31.117 56.3384 31.6238 56.727 31.8603C58.1122 32.7049 59.4975 33.5496 60.8489 34.4111C60.9841 34.4956 61.1361 34.5463 61.2881 34.5463C61.5584 34.5463 61.8287 34.4111 61.9808 34.1577C62.2173 33.7692 62.1159 33.2624 61.7273 33.0259V33.009ZM92.2363 58.0446C92.4559 58.0446 92.6755 57.9601 92.8445 57.7743C93.1485 57.4364 93.1316 56.9128 92.7938 56.6087C91.5944 55.5275 90.3781 54.4464 89.1449 53.3652C88.807 53.0611 88.2833 53.1118 87.9792 53.4497C87.6752 53.7875 87.7258 54.3112 88.0637 54.6153C89.2969 55.6796 90.4963 56.7607 91.6788 57.8419C91.8309 57.9939 92.0336 58.0615 92.2363 58.0615V58.0446ZM53.3653 27.9918C51.9631 27.1809 50.5441 26.3869 49.1082 25.6098C48.7027 25.3902 48.2129 25.5423 47.9933 25.9308C47.7737 26.3362 47.9257 26.8261 48.3142 27.0457C49.7332 27.8228 51.1522 28.6168 52.5375 29.4108C52.6726 29.4784 52.8078 29.5121 52.9429 29.5121C53.2301 29.5121 53.5004 29.3601 53.6524 29.1067C53.872 28.7182 53.7369 28.2114 53.3484 27.9918H53.3653ZM84.8878 51.6759C85.1243 51.6759 85.3608 51.5745 85.5129 51.3718C85.8 51.0171 85.7494 50.5103 85.4115 50.2231C84.1614 49.1926 82.9113 48.1621 81.6274 47.1485C81.2727 46.8783 80.749 46.9289 80.4787 47.2837C80.1915 47.6384 80.2591 48.1621 80.6139 48.4324C81.8808 49.446 83.1309 50.4596 84.381 51.4901C84.533 51.6252 84.7188 51.6759 84.9047 51.6759H84.8878ZM76.7622 45.4592C76.9143 45.5775 77.0832 45.6282 77.2521 45.6282C77.5055 45.6282 77.742 45.5099 77.911 45.3072C78.1812 44.9524 78.1137 44.4288 77.7589 44.1585C76.475 43.1787 75.1574 42.2158 73.8397 41.2528C73.485 40.9826 72.9613 41.067 72.691 41.4387C72.4207 41.8103 72.5051 42.3171 72.8768 42.5874C74.1945 43.5334 75.4953 44.4963 76.7622 45.4761V45.4592ZM149.74 151.075C150.129 152.663 150.484 154.234 150.805 155.788C150.889 156.177 151.227 156.447 151.616 156.447C151.666 156.447 151.734 156.447 151.784 156.447C152.224 156.362 152.511 155.923 152.426 155.484C152.105 153.913 151.751 152.308 151.362 150.703C151.261 150.264 150.822 149.994 150.365 150.095C149.926 150.196 149.656 150.653 149.757 151.092L149.74 151.075ZM151.683 160.552C151.953 162.157 152.173 163.762 152.376 165.333C152.426 165.755 152.781 166.059 153.187 166.059C153.22 166.059 153.254 166.059 153.288 166.059C153.744 166.008 154.065 165.603 153.998 165.147C153.812 163.542 153.575 161.937 153.305 160.299C153.237 159.859 152.798 159.538 152.359 159.623C151.903 159.69 151.616 160.113 151.683 160.569V160.552ZM44.7835 23.2955C43.3476 22.5522 41.8949 21.8089 40.4252 21.0825C40.0197 20.8798 39.5298 21.0487 39.3271 21.4541C39.1244 21.8596 39.2933 22.3495 39.6988 22.5522C41.1516 23.2786 42.6044 24.005 44.0234 24.7483C44.1416 24.8159 44.2768 24.8328 44.395 24.8328C44.6822 24.8328 44.9694 24.6638 45.1214 24.3935C45.3241 23.9881 45.1721 23.4982 44.7667 23.2786L44.7835 23.2955ZM147.139 141.75C147.629 143.304 148.085 144.858 148.524 146.396C148.625 146.75 148.963 146.987 149.318 146.987C149.386 146.987 149.47 146.987 149.538 146.953C149.977 146.835 150.23 146.379 150.112 145.939C149.673 144.385 149.217 142.831 148.71 141.26C148.575 140.821 148.119 140.584 147.679 140.719C147.24 140.855 147.004 141.311 147.139 141.75ZM152.849 170.13C152.967 171.752 153.051 173.374 153.102 174.945C153.102 175.384 153.474 175.739 153.93 175.739H153.947C154.403 175.739 154.758 175.35 154.741 174.894C154.69 173.289 154.606 171.651 154.487 169.995C154.454 169.539 154.048 169.201 153.609 169.235C153.153 169.269 152.815 169.657 152.849 170.113V170.13ZM145.602 137.172C145.72 137.51 146.041 137.729 146.379 137.729C146.463 137.729 146.565 137.729 146.649 137.679C147.071 137.527 147.308 137.054 147.156 136.631C146.632 135.111 146.058 133.574 145.466 132.036C145.298 131.614 144.825 131.394 144.402 131.563C143.98 131.732 143.76 132.205 143.929 132.628C144.52 134.148 145.061 135.668 145.602 137.172ZM128.827 102.338C128.979 102.592 129.249 102.727 129.519 102.727C129.671 102.727 129.823 102.693 129.959 102.609C130.347 102.372 130.465 101.865 130.229 101.477C129.384 100.108 128.506 98.7232 127.61 97.3549C127.357 96.9663 126.85 96.865 126.479 97.1183C126.09 97.3717 125.989 97.8785 126.242 98.2502C127.137 99.6185 127.999 100.97 128.844 102.338H128.827ZM138.169 119.316C138.304 119.603 138.608 119.772 138.912 119.772C139.03 119.772 139.148 119.738 139.267 119.688C139.672 119.485 139.841 118.995 139.655 118.589C138.946 117.137 138.219 115.684 137.476 114.214C137.273 113.809 136.767 113.657 136.361 113.859C135.956 114.062 135.804 114.569 136.006 114.974C136.75 116.427 137.476 117.863 138.169 119.299V119.316ZM139.368 214.12C138.118 215.083 136.8 215.928 135.398 216.654C134.993 216.857 134.841 217.363 135.043 217.769C135.195 218.056 135.483 218.208 135.77 218.208C135.905 218.208 136.023 218.174 136.141 218.124C137.611 217.363 139.047 216.451 140.365 215.438C140.72 215.167 140.787 214.644 140.517 214.289C140.23 213.934 139.723 213.867 139.368 214.137V214.12ZM143.22 128.59C143.642 128.421 143.845 127.931 143.659 127.509C143.034 126.022 142.392 124.519 141.716 123.032C141.53 122.627 141.04 122.441 140.635 122.627C140.213 122.813 140.044 123.303 140.23 123.708C140.905 125.195 141.547 126.664 142.155 128.151C142.291 128.472 142.595 128.658 142.916 128.658C143.017 128.658 143.135 128.641 143.237 128.59H143.22ZM135.162 109.923C134.385 108.504 133.574 107.085 132.746 105.666C132.526 105.278 132.02 105.143 131.631 105.379C131.242 105.616 131.107 106.105 131.344 106.494C132.172 107.896 132.966 109.298 133.726 110.717C133.878 110.988 134.148 111.14 134.452 111.14C134.587 111.14 134.722 111.106 134.841 111.038C135.246 110.819 135.381 110.312 135.162 109.923ZM150.957 198.139C150.518 197.987 150.061 198.207 149.909 198.646C149.369 200.183 148.761 201.653 148.085 203.055C147.882 203.46 148.051 203.95 148.473 204.153C148.592 204.204 148.71 204.238 148.828 204.238C149.132 204.238 149.419 204.069 149.571 203.781C150.281 202.329 150.906 200.791 151.464 199.203C151.616 198.781 151.396 198.308 150.957 198.156V198.139ZM153.964 178.982C153.474 178.965 153.136 179.32 153.119 179.776C153.068 181.415 152.984 183.02 152.832 184.574C152.798 185.03 153.119 185.419 153.575 185.469C153.592 185.469 153.626 185.469 153.643 185.469C154.065 185.469 154.42 185.148 154.454 184.726C154.606 183.138 154.69 181.482 154.741 179.827C154.741 179.371 154.403 178.999 153.947 178.982H153.964ZM131.057 218.411C129.587 218.867 128.033 219.205 126.445 219.424C125.989 219.492 125.685 219.897 125.735 220.354C125.786 220.759 126.141 221.063 126.546 221.063C126.58 221.063 126.614 221.063 126.664 221.063C128.337 220.827 129.992 220.472 131.547 219.999C131.986 219.864 132.222 219.408 132.087 218.968C131.952 218.529 131.496 218.293 131.057 218.428V218.411ZM153.187 188.662C152.747 188.595 152.308 188.899 152.241 189.338C151.987 190.943 151.649 192.531 151.278 194.034C151.159 194.473 151.43 194.913 151.869 195.031C151.937 195.031 152.004 195.048 152.072 195.048C152.443 195.048 152.781 194.794 152.866 194.423C153.254 192.868 153.575 191.247 153.845 189.591C153.913 189.135 153.609 188.713 153.17 188.645L153.187 188.662ZM146.885 206.924C146.514 206.67 145.99 206.771 145.754 207.16C144.875 208.495 143.895 209.762 142.865 210.893C142.561 211.231 142.578 211.755 142.916 212.059C143.068 212.194 143.27 212.279 143.473 212.279C143.693 212.279 143.912 212.194 144.081 212.008C145.179 210.809 146.21 209.474 147.139 208.072C147.392 207.701 147.291 207.177 146.902 206.94L146.885 206.924ZM106.663 70.3766C105.565 69.1772 104.45 67.9946 103.318 66.8121C102.997 66.4911 102.49 66.4743 102.153 66.7952C101.832 67.1162 101.815 67.623 102.136 67.9608C103.267 69.1265 104.366 70.309 105.447 71.4915C105.616 71.6604 105.835 71.7618 106.055 71.7618C106.258 71.7618 106.46 71.6942 106.612 71.5422C106.95 71.2381 106.967 70.7144 106.663 70.3766ZM99.3145 64.7343C99.5172 64.7343 99.7368 64.6498 99.8888 64.4978C100.21 64.1768 100.21 63.6531 99.8888 63.3321C98.7401 62.1834 97.5745 61.0516 96.392 59.9197C96.071 59.5988 95.5474 59.6157 95.2264 59.9535C94.9054 60.2745 94.9223 60.7982 95.2602 61.1191C96.4427 62.2341 97.5914 63.3659 98.7401 64.4978C98.8922 64.6498 99.1118 64.7343 99.3145 64.7343ZM122.103 89.2799C121.833 88.9083 121.326 88.8238 120.955 89.0941C120.583 89.3644 120.498 89.8712 120.769 90.2429C121.715 91.5605 122.661 92.8782 123.556 94.1958C123.708 94.4323 123.978 94.5506 124.232 94.5506C124.401 94.5506 124.553 94.4999 124.705 94.3986C125.076 94.1452 125.178 93.6215 124.908 93.2498C123.995 91.9153 123.049 90.5807 122.086 89.2631L122.103 89.2799ZM118.539 86.6784C118.708 86.6784 118.894 86.6277 119.029 86.5095C119.384 86.2392 119.468 85.7155 119.181 85.3607C118.201 84.0769 117.204 82.793 116.174 81.5091C115.887 81.1544 115.38 81.1037 115.025 81.374C114.67 81.6611 114.62 82.1679 114.89 82.5227C115.904 83.7897 116.9 85.0736 117.863 86.3405C118.032 86.5602 118.269 86.6615 118.522 86.6615L118.539 86.6784ZM109.923 74.0086C109.619 73.6707 109.096 73.6369 108.758 73.941C108.42 74.2451 108.386 74.7519 108.69 75.1066C109.754 76.3229 110.819 77.5561 111.849 78.7893C112.018 78.992 112.238 79.0765 112.474 79.0765C112.66 79.0765 112.846 79.0089 112.998 78.8907C113.353 78.6035 113.386 78.0798 113.099 77.7251C112.069 76.475 111.005 75.2418 109.923 74.0086Z" fill="#FF5722"/>
<path d="M9.59588 7.88908C5.57532 6.28424 0.372219 5.05104 0.0174637 5.91259C-0.320398 6.79103 4.30833 9.44325 8.32889 11.0481C8.70054 11.2001 9.05527 11.3353 9.41003 11.4704C9.61274 12.0279 10.052 13.2104 10.6095 14.697C10.5926 14.697 10.5926 14.6632 10.5588 14.6463L9.47761 14.224C9.34247 14.1733 9.19044 14.2578 9.12287 14.4098L8.70054 15.4572C8.63297 15.6092 8.70052 15.7782 8.83567 15.8288L9.91685 16.2512C9.91685 16.2512 10.0351 16.2512 10.1026 16.2512L11.3528 16.758C11.8258 18.0249 12.3325 19.4102 12.8393 20.7616L11.7751 20.3393C11.64 20.2886 11.4879 20.3731 11.4203 20.5251L10.998 21.5725C10.9304 21.7245 10.998 21.8935 11.1332 21.9441L12.2143 22.3665C12.2143 22.3665 12.3326 22.3665 12.4001 22.3665L13.6164 22.8564C14.9172 26.3195 16.0152 29.2082 16.0828 29.2758C16.2686 29.4616 17.8904 30.0359 17.8904 30.0359C18.262 30.188 18.583 30.2724 18.5999 30.2218C18.5999 30.188 18.2113 29.9853 17.8566 29.8332L16.6741 22.8057C16.9782 22.9071 17.2316 22.9239 17.2485 22.8564C17.2822 22.755 17.0119 22.5692 16.6403 22.4172H16.6065L16.37 21.015C16.6572 21.0995 16.8937 21.1333 16.9275 21.0488C16.9613 20.9475 16.691 20.7616 16.3194 20.6096L16.0997 19.3426L16.2011 18.4642C16.5389 18.5824 16.843 18.6331 16.8768 18.5317C16.9106 18.4304 16.6403 18.2446 16.2686 18.0925H16.2518L16.4376 16.3187C16.7754 16.437 17.0626 16.4708 17.0964 16.3863C17.1302 16.285 16.8599 16.0991 16.4882 15.9471H16.4714L16.6403 14.3254C19.3601 15.3727 20.4413 15.7613 22.4346 16.5552C24.4449 17.3492 26.4383 17.9743 28.1614 18.4304C28.8709 20.3055 30.2562 24.0727 30.2562 24.0727L31.3542 24.6133L32.1144 19.2581C32.5029 19.3088 32.8239 19.3257 33.0604 19.3257C33.9219 19.596 34.4625 19.7311 34.4963 19.6636C34.5301 19.5791 34.0571 19.3088 33.28 18.9372C33.1111 18.7851 32.8408 18.5824 32.4692 18.3459L35.6112 13.8861L34.4456 13.5314C34.4456 13.5314 30.6278 15.4403 28.8878 16.285C27.3843 15.4741 25.6105 14.5788 23.7354 13.6665C21.2352 12.6698 20.1541 12.2137 17.8735 11.2677L18.8533 9.98382C19.225 10.1359 19.5628 10.1865 19.5966 10.0852C19.6304 10.0007 19.3939 9.83179 19.056 9.67975L20.1372 8.26073H20.1541C20.5257 8.41277 20.8636 8.46345 20.8974 8.36209C20.9312 8.27762 20.6946 8.0918 20.3568 7.95665L20.8974 7.24714L21.9278 6.47006C22.2995 6.6221 22.6373 6.67278 22.6711 6.57142C22.7049 6.48695 22.5191 6.35181 22.2488 6.21666L23.3807 5.37201H23.4144C23.7861 5.54094 24.1239 5.57472 24.1577 5.49026C24.1915 5.40579 23.9888 5.25376 23.7016 5.11861L29.3946 0.827762C29.7494 0.962907 30.1885 1.09805 30.2054 1.06427C30.2223 1.01359 29.9352 0.861548 29.5635 0.70951C29.5635 0.70951 28.0093 0 27.7391 0C27.6377 0 24.8504 1.35145 21.5393 2.97319L20.323 2.48329C20.323 2.48329 20.2554 2.36503 20.2047 2.34814L19.1236 1.92581C18.9884 1.87513 18.8364 1.9596 18.7688 2.11164L18.3465 3.15901C18.2789 3.31105 18.3465 3.47998 18.4817 3.53066L19.5459 3.95299C18.2451 4.59492 16.9275 5.23686 15.7112 5.84501L14.4611 5.33822C14.4611 5.33822 14.3935 5.21997 14.3428 5.20308L13.2617 4.78075C13.1265 4.73007 12.9745 4.81454 12.9069 4.96657L12.4846 6.01395C12.417 6.16598 12.4846 6.33491 12.6198 6.38559L13.7009 6.80792C13.7009 6.80792 13.7516 6.80792 13.7685 6.80792C12.3663 7.50054 11.2514 8.05801 10.7108 8.3283C10.3561 8.19316 10.0013 8.04112 9.62964 7.88908H9.59588Z" fill="#FF5722"/>
</svg>
