<svg width="104" height="32" viewBox="0 0 104 32" fill="none" xmlns="http://www.w3.org/2000/svg">
<path d="M54.5309 8.04048C54.5309 9.19374 53.6016 10.1224 52.4484 10.1224C51.2951 10.1224 50.3665 9.19374 50.3665 8.04048C50.3665 6.88723 51.2634 5.9586 52.4484 5.9586C53.6343 5.9906 54.5309 6.91955 54.5309 8.04048ZM45.9461 12.2369V12.7495C45.9461 12.7495 44.9535 11.4676 42.8393 11.4676C39.3482 11.4676 36.625 14.1264 36.625 17.8099C36.625 21.4617 39.3162 24.1522 42.8393 24.1522C44.9855 24.1522 45.9461 22.8389 45.9461 22.8389V23.3832C45.9461 23.6395 46.1387 23.8312 46.3947 23.8312H48.9889V11.787H46.3947C46.1387 11.7879 45.9461 12.0126 45.9461 12.2369ZM45.9461 19.9561C45.4661 20.661 44.5049 21.2697 43.3519 21.2697C41.302 21.2697 39.7322 19.9884 39.7322 17.8099C39.7322 15.6317 41.302 14.3504 43.3519 14.3504C44.4732 14.3504 45.4981 14.9911 45.9461 15.6637V19.9561ZM50.9111 11.7879H53.9859V23.8322H50.9111V11.7879ZM96.8446 11.4673C94.7304 11.4673 93.7371 12.7492 93.7371 12.7492V5.9906H90.6623V23.8322H93.2571C93.5135 23.8322 93.7051 23.6078 93.7051 23.3835V22.8392C93.7051 22.8392 94.6984 24.1525 96.812 24.1525C100.304 24.1525 103.026 21.4626 103.026 17.8108C103.026 14.1591 100.304 11.4673 96.8446 11.4673ZM96.332 21.2373C95.1464 21.2373 94.2178 20.6293 93.7371 19.9241V15.6317C94.2178 14.9911 95.2427 14.3184 96.332 14.3184C98.3818 14.3184 99.9514 15.5997 99.9514 17.7779C99.9514 19.9561 98.3822 21.2373 96.332 21.2373ZM89.0611 16.6893V23.8642H85.9856V17.0413C85.9856 15.0557 85.345 14.2544 83.6164 14.2544C82.6878 14.2544 81.7265 14.7351 81.1169 15.44V23.8325H78.0427V11.7882H80.4763C80.7326 11.7882 80.9249 12.0126 80.9249 12.2369V12.7495C81.8219 11.8202 83.0068 11.4676 84.1917 11.4676C85.5373 11.4676 86.6586 11.8526 87.5555 12.6212C88.6441 13.5181 89.0611 14.6711 89.0611 16.6893ZM70.5782 11.4673C68.4647 11.4673 67.4714 12.7492 67.4714 12.7492V5.9906H64.3966V23.8322H66.9908C67.2471 23.8322 67.4394 23.6078 67.4394 23.3835V22.8392C67.4394 22.8392 68.4327 24.1525 70.5462 24.1525C74.038 24.1525 76.7605 21.4626 76.7605 17.8108C76.7925 14.1588 74.07 11.4673 70.5782 11.4673ZM70.0656 21.2373C68.8807 21.2373 67.9521 20.6293 67.4714 19.9241V15.6317C67.9521 14.9911 68.977 14.3184 70.0656 14.3184C72.1161 14.3184 73.6854 15.5997 73.6854 17.7779C73.6854 19.9561 72.1161 21.2373 70.0656 21.2373ZM61.7378 11.4673C62.6664 11.4673 63.147 11.6279 63.147 11.6279V14.4784C63.147 14.4784 60.5845 13.6135 58.9833 15.4397V23.8638H55.9078V11.7879H58.5027C58.759 11.7879 58.9506 12.0122 58.9506 12.2366V12.7492C59.5279 12.0762 60.7772 11.4673 61.7378 11.4673ZM29.8027 22.7429C29.6427 22.3586 29.4824 21.9423 29.3224 21.5897C29.0658 21.0133 28.8095 20.4684 28.5858 19.9561L28.5538 19.9241C26.3433 15.1191 23.9734 10.2507 21.4746 5.4463L21.3786 5.25365C21.1158 4.75525 20.8597 4.25336 20.6103 3.74809C20.2897 3.17114 19.9697 2.56315 19.457 1.9862C18.4321 0.704946 16.9585 0 15.3893 0C13.7874 0 12.3461 0.70495 11.2895 1.92189C10.8089 2.49819 10.4563 3.10683 10.1363 3.68377C9.88628 4.18872 9.63016 4.69061 9.36796 5.18934L9.27165 5.38197C6.80514 10.1864 4.40294 15.0551 2.19275 19.8598L2.16043 19.9234C1.93644 20.4367 1.6798 20.981 1.42349 21.557C1.26349 21.9096 1.10349 22.294 0.943495 22.7103C0.526863 23.8952 0.39854 25.0165 0.559177 26.17C0.911489 28.5726 2.51274 30.5898 4.72325 31.4874C5.5562 31.84 6.42114 32 7.31776 32C7.57408 32 7.89408 31.968 8.15071 31.9357C9.20797 31.8077 10.2969 31.4557 11.3542 30.8471C12.6674 30.1101 13.9167 29.0535 15.3259 27.5159C16.7352 29.0535 18.0164 30.1101 19.2977 30.8471C20.3553 31.4557 21.4439 31.8077 22.5008 31.9357C22.7571 31.9683 23.0778 32 23.3341 32C24.231 32 25.1276 31.84 25.9283 31.4874C28.1708 30.5898 29.74 28.5406 30.0927 26.17C30.3471 25.0491 30.2191 23.9285 29.8027 22.7429ZM15.357 24.4085C13.6271 22.2303 12.5058 20.1804 12.1218 18.4512C11.9618 17.7142 11.9295 17.0736 12.0258 16.497C12.0895 15.9843 12.2821 15.5357 12.5385 15.1514C13.1471 14.2871 14.172 13.7421 15.3573 13.7421C16.5429 13.7421 17.5998 14.2548 18.1764 15.1514C18.4327 15.5357 18.6247 15.9846 18.6894 16.497C18.7851 17.0739 18.7531 17.7462 18.5931 18.4512C18.2075 20.1484 17.0862 22.1986 15.357 24.4085ZM28.1369 25.914C27.9129 27.5796 26.7916 29.0215 25.2224 29.6621C24.4537 29.9821 23.6205 30.0784 22.7882 29.9821C21.9875 29.8858 21.1863 29.6295 20.354 29.1495C19.2007 28.5082 18.0478 27.5159 16.7022 26.042C18.8161 23.4478 20.0974 21.077 20.578 18.9635C20.8023 17.9702 20.8346 17.0736 20.738 16.2403C20.6103 15.4397 20.3217 14.7027 19.8733 14.0621C18.8798 12.6202 17.2139 11.7879 15.3566 11.7879C13.4994 11.7879 11.8335 12.6529 10.8406 14.0621C10.3923 14.7027 10.1036 15.4397 9.97563 16.2403C9.84763 17.0736 9.87931 18.0022 10.1356 18.9635C10.6159 21.077 11.9292 23.4795 14.0111 26.074C12.6978 27.5476 11.5126 28.5409 10.3593 29.1815C9.52636 29.6621 8.72606 29.9184 7.92543 30.0141C7.06081 30.1104 6.22755 29.9821 5.49092 29.6941C3.92167 29.0535 2.80042 27.6116 2.57642 25.946C2.48042 25.1454 2.5441 24.3448 2.86474 23.4478C2.96041 23.1272 3.12105 22.8072 3.28105 22.4229C3.50536 21.9103 3.76104 21.3653 4.01767 20.821L4.04999 20.7573C6.25987 15.9843 8.63006 11.1156 11.0966 6.37523L11.1926 6.1826C11.4492 5.70261 11.7055 5.18998 11.9615 4.70935C12.2178 4.19672 12.5058 3.71609 12.8584 3.29945C13.5311 2.53147 14.4277 2.11452 15.421 2.11452C16.4142 2.11452 17.3108 2.53147 17.9835 3.29945C18.3361 3.71705 18.6241 4.19768 18.8804 4.70935C19.137 5.18998 19.3934 5.70261 19.649 6.1826L19.7454 6.37523C22.1742 11.1353 24.513 15.9409 26.7602 20.7893V20.8213C27.0169 21.3346 27.2409 21.9106 27.4972 22.4239C27.6572 22.8075 27.8175 23.1275 27.9135 23.4482C28.1692 24.2802 28.2652 25.0814 28.1369 25.914Z" fill="#191825" fill-opacity="0.5"/>
</svg>
