<svg width="190" height="32" viewBox="0 0 190 32" fill="none" xmlns="http://www.w3.org/2000/svg">
<mask id="mask0_105_2540" style="mask-type:luminance" maskUnits="userSpaceOnUse" x="0" y="0" width="190" height="32">
<path d="M189.492 0H0.88855V32H189.492V0Z" fill="white"/>
</mask>
<g mask="url(#mask0_105_2540)">
<mask id="mask1_105_2540" style="mask-type:luminance" maskUnits="userSpaceOnUse" x="0" y="0" width="190" height="32">
<path d="M189.492 0H0.88855V32H189.492V0Z" fill="white"/>
</mask>
<g mask="url(#mask1_105_2540)">
<path d="M74.8456 3.50312C74.8456 1.92283 76.1275 0.633545 77.7152 0.633545C79.2954 0.633545 80.5847 1.91546 80.5847 3.50312C80.5295 5.08342 79.196 6.31744 77.612 6.26219C76.1091 6.20693 74.9045 5.00238 74.8456 3.50312Z" fill="#191825" fill-opacity="0.5"/>
</g>
<mask id="mask2_105_2540" style="mask-type:luminance" maskUnits="userSpaceOnUse" x="0" y="0" width="190" height="32">
<path d="M189.492 0H0.88855V32H189.492V0Z" fill="white"/>
</mask>
<g mask="url(#mask2_105_2540)">
<path d="M120.07 22.6177C120.07 21.0263 121.352 19.7407 122.928 19.7407C124.516 19.7407 125.802 21.0263 125.802 22.6177C125.802 24.2053 124.516 25.4909 122.928 25.4909C121.352 25.4909 120.07 24.2016 120.07 22.6177Z" fill="#191825" fill-opacity="0.5"/>
</g>
<mask id="mask3_105_2540" style="mask-type:luminance" maskUnits="userSpaceOnUse" x="0" y="0" width="190" height="32">
<path d="M189.492 0H0.88855V32H189.492V0Z" fill="white"/>
</mask>
<g mask="url(#mask3_105_2540)">
<path d="M27.8164 21.3763C25.352 21.3763 23.6318 19.4166 23.6318 16.6133C23.6318 13.8137 25.3483 11.854 27.8164 11.854C30.2955 11.854 32.0342 13.8137 32.0342 16.6133C32.0305 19.4608 30.336 21.3763 27.8164 21.3763ZM27.8164 7.66939C22.5966 7.66939 18.8062 11.4304 18.8062 16.6133C18.8062 21.7962 22.6003 25.5573 27.8164 25.5573C33.0619 25.5573 36.8635 21.7962 36.8635 16.617C36.8635 11.4304 33.0546 7.66939 27.8164 7.66939ZM69.2982 17.0627C69.1177 16.7128 68.8856 16.3849 68.6167 16.0976L68.4583 15.9318L68.624 15.7735C68.8635 15.5193 69.1103 15.2209 69.3424 14.8746L73.9506 8.02302H68.3551L64.8925 13.3827C64.6973 13.6738 64.3031 13.8101 63.71 13.8101H62.918V3.67629C62.918 1.65027 61.6582 1.37769 60.2916 1.37769H57.9561L57.9598 25.292H62.9144V18.1236H63.3785C63.9421 18.1236 64.3252 18.1899 64.5057 18.4957L67.239 23.6565C68.0052 25.0563 68.764 25.2957 70.1933 25.2957H74.0022L71.1695 20.6212L69.2982 17.0627ZM93.3672 7.63255C90.8439 7.63255 89.2342 8.75238 88.3353 9.70277L88.037 10.0085L87.9301 9.59594C87.6649 8.57925 86.7735 8.0267 85.4289 8.0267H83.2077L83.2224 25.2957H88.1475V17.339C88.1475 16.5581 88.2469 15.8876 88.4532 15.2688C89.0021 13.4049 90.5308 12.2408 92.4389 12.2408C93.975 12.2408 94.5791 13.0512 94.5791 15.1509V22.6729C94.5791 24.4595 95.4043 25.2994 97.1982 25.2994H99.5374L99.5263 14.3147C99.5263 9.93484 97.3935 7.63255 93.3672 7.63255ZM77.778 8.02302H75.4425L75.4572 21.3763V25.292H77.9474L78.0358 25.2957L79.1998 25.292H80.3528V25.2884H80.3639L80.3749 10.6495C80.3676 8.88131 79.524 8.02302 77.778 8.02302ZM47.152 21.3763C44.6876 21.3763 42.9673 19.4166 42.9673 16.6133C42.9673 13.8137 44.6876 11.854 47.152 11.854C49.6274 11.854 51.3698 13.8137 51.3698 16.6133C51.3661 19.4608 49.6716 21.3763 47.152 21.3763ZM47.152 7.66939C41.9285 7.66939 38.1343 11.4304 38.1343 16.6133C38.1343 21.7962 41.9285 25.5573 47.152 25.5573C52.3864 25.5573 56.199 21.7962 56.199 16.617C56.199 11.4304 52.3901 7.66939 47.152 7.66939Z" fill="#191825" fill-opacity="0.5"/>
</g>
</g>
<mask id="mask4_105_2540" style="mask-type:luminance" maskUnits="userSpaceOnUse" x="0" y="0" width="190" height="32">
<path d="M189.492 0H0.88855V32H189.492V0Z" fill="white"/>
</mask>
<g mask="url(#mask4_105_2540)">
<mask id="mask5_105_2540" style="mask-type:luminance" maskUnits="userSpaceOnUse" x="0" y="0" width="190" height="32">
<path d="M189.452 0.629883H0.88855V31.9595H189.452V0.629883Z" fill="white"/>
</mask>
<g mask="url(#mask5_105_2540)">
<mask id="mask6_105_2540" style="mask-type:luminance" maskUnits="userSpaceOnUse" x="0" y="0" width="190" height="32">
<path d="M189.492 0H0.88855V32H189.492V0Z" fill="white"/>
</mask>
<g mask="url(#mask6_105_2540)">
<path d="M152.681 21.3763C150.217 21.3763 148.497 19.4166 148.497 16.6134C148.497 13.8138 150.217 11.8541 152.681 11.8541C155.16 11.8541 156.899 13.8138 156.899 16.6134C156.899 19.4608 155.201 21.3763 152.681 21.3763ZM152.681 7.66943C147.458 7.66943 143.664 11.4305 143.664 16.6134C143.664 21.7963 147.45 25.5573 152.681 25.5573C157.919 25.5573 161.728 21.7963 161.728 16.6171C161.728 11.4305 157.916 7.66943 152.681 7.66943Z" fill="#191825" fill-opacity="0.5"/>
</g>
<mask id="mask7_105_2540" style="mask-type:luminance" maskUnits="userSpaceOnUse" x="0" y="0" width="190" height="32">
<path d="M189.492 0H0.88855V32H189.492V0Z" fill="white"/>
</mask>
<g mask="url(#mask7_105_2540)">
<path d="M109.903 20.6101C107.21 20.6101 106.256 18.2636 106.256 16.0645C106.256 15.092 106.503 11.9351 109.652 11.9351C111.214 11.9351 113.296 12.3845 113.296 16.2229C113.292 19.8513 111.446 20.6101 109.903 20.6101ZM115.848 7.97883C114.913 7.97883 114.194 8.35088 113.833 9.03236L113.701 9.29758L113.472 9.09498C112.677 8.40613 111.251 7.59204 108.941 7.59204C104.337 7.59204 101.239 11.0473 101.239 16.1971C101.239 21.3395 104.447 24.9311 109.037 24.9311C110.603 24.9311 111.844 24.5627 112.824 23.8186L113.2 23.535V24.0138C113.2 26.3235 111.708 27.5943 109.004 27.5943C107.685 27.5943 106.492 27.2739 105.692 26.9829C104.65 26.6661 104.035 26.9313 103.615 27.9738L103.221 28.9389L102.668 30.3497L103.011 30.5302C104.742 31.4511 106.996 31.9963 109.03 31.9963C113.222 31.9963 118.117 29.8524 118.117 23.8112L118.132 7.96778H115.848" fill="#191825" fill-opacity="0.5"/>
</g>
</g>
</g>
<mask id="mask8_105_2540" style="mask-type:luminance" maskUnits="userSpaceOnUse" x="0" y="0" width="190" height="32">
<path d="M189.492 0H0.88855V32H189.492V0Z" fill="white"/>
</mask>
<g mask="url(#mask8_105_2540)">
<mask id="mask9_105_2540" style="mask-type:luminance" maskUnits="userSpaceOnUse" x="0" y="0" width="190" height="32">
<path d="M189.492 0H0.88855V32H189.492V0Z" fill="white"/>
</mask>
<g mask="url(#mask9_105_2540)">
<path d="M9.48254 21.1737L5.47103 21.17V16.3812C5.47103 15.3535 5.86887 14.8267 6.74189 14.7015H9.47517C11.4238 14.7015 12.6836 15.9318 12.691 17.921C12.691 19.9654 11.4607 21.1737 9.48254 21.1737ZM5.47103 8.25136V6.99154C5.47103 5.88644 5.93517 5.36337 6.96291 5.29706H9.01472C10.7718 5.29706 11.8254 6.35059 11.8254 8.11138C11.8254 9.45592 11.1034 11.0215 9.07734 11.0215H5.47103V8.25136ZM14.5955 13.0328L13.8735 12.6239L14.5034 12.0824C15.2438 11.4525 16.4705 10.0269 16.4705 7.56988C16.4705 3.80886 13.5567 1.38501 9.04419 1.38501H3.3124C1.97523 1.4329 0.903284 2.52694 0.88855 3.86412V25.1999H9.15101C14.1682 25.1999 17.4024 22.4703 17.4024 18.2415C17.4024 15.9723 16.3526 14.0237 14.5955 13.0328Z" fill="#191825" fill-opacity="0.5"/>
</g>
<mask id="mask10_105_2540" style="mask-type:luminance" maskUnits="userSpaceOnUse" x="0" y="0" width="190" height="32">
<path d="M189.492 0H0.88855V32H189.492V0Z" fill="white"/>
</mask>
<g mask="url(#mask10_105_2540)">
<path d="M183.72 7.68776C181.664 7.69145 179.716 8.63815 178.434 10.2516L178.077 10.701L177.797 10.1963C176.883 8.53133 175.318 7.69145 173.129 7.69145C170.842 7.69145 169.306 8.966 168.591 9.72852L168.127 10.2332L167.947 9.56644C167.689 8.60868 166.834 8.08192 165.545 8.08192H163.475L163.452 25.2846H168.153V17.6889C168.153 17.0222 168.234 16.3665 168.4 15.6776C168.849 13.8432 170.083 11.8687 172.157 12.064C173.432 12.1892 174.058 13.1764 174.058 15.0809V25.281H178.791V17.6852C178.791 16.8527 178.869 16.2265 179.056 15.6076C179.432 13.8542 180.725 12.0566 182.725 12.0566C184.173 12.0566 184.711 12.8744 184.711 15.0809V22.765C184.711 24.5 185.484 25.281 187.223 25.281H189.433L189.437 14.2999C189.452 9.90902 187.518 7.68776 183.72 7.68776ZM140.942 19.3097C140.927 19.3245 138.905 21.461 136.241 21.461C133.814 21.461 131.364 19.9728 131.364 16.6501C131.364 13.7806 133.265 11.773 135.987 11.773C136.871 11.773 137.873 12.0897 138.031 12.6202L138.054 12.7086C138.26 13.4638 138.949 13.9831 139.726 13.9795L142.301 13.9832V11.7287C142.301 8.75603 138.525 7.68408 135.98 7.68408C130.543 7.68408 126.601 11.4672 126.601 16.6796C126.601 21.8883 130.502 25.6714 135.88 25.6714C140.547 25.6714 143.082 22.6029 143.108 22.5771L143.24 22.4114L141.199 19.0261L140.942 19.3097Z" fill="#191825" fill-opacity="0.5"/>
</g>
</g>
</svg>
