<svg width="114" height="32" viewBox="0 0 114 32" fill="none" xmlns="http://www.w3.org/2000/svg">
<path d="M55.1685 25.0368H51.6535C51.6313 25.0368 51.6313 25.0368 51.6202 25.0257L48.5946 21.3327L45.5691 25.0257C45.5579 25.0368 45.5468 25.0368 45.5357 25.0368H42.7215C42.6993 25.0368 42.6881 25.0257 42.677 25.0146C42.677 25.0034 42.677 24.9812 42.6881 24.9701L47.1486 19.4974L42.7437 14.0803C42.7326 14.0581 42.7326 14.0469 42.7326 14.0247C42.7437 14.0136 42.7549 14.0024 42.766 14.0024H46.281C46.2921 14.0024 46.3032 14.0136 46.3143 14.0247L48.9728 17.3172L51.6758 14.0247C51.6869 14.0136 51.698 14.0024 51.7092 14.0024H54.5679C54.579 14.0024 54.6012 14.0136 54.6124 14.0247C54.6235 14.0469 54.6124 14.0581 54.6012 14.0803L50.43 19.0969L55.213 24.9701C55.2241 24.9812 55.2241 25.0034 55.2241 25.0146C55.2019 25.0368 55.1908 25.0368 55.1685 25.0368Z" fill="#191825" fill-opacity="0.5"/>
<path d="M74.1784 15.9379C72.6212 15.9379 71.5645 16.8834 71.253 18.5185H76.5477V18.4073C76.5477 17.1059 75.58 15.9379 74.1784 15.9379ZM79.2729 20.2093C79.2618 20.2204 79.2507 20.2315 79.2396 20.2315H71.1974C71.3642 22.1002 72.5767 23.1681 74.5455 23.1681C75.758 23.1681 77.0483 22.7565 78.8614 21.7888C78.8947 21.7665 78.9281 21.7999 78.9281 21.8333V24.3027C78.9281 24.3249 78.917 24.336 78.9059 24.336C77.2151 25.0479 75.5132 25.5374 74.1784 25.5374C70.7191 25.5374 68.2052 23.0124 68.2052 19.5419C68.2052 16.0714 70.7191 13.5464 74.1784 13.5464C77.3375 13.5464 79.3619 15.6709 79.3619 18.5964C79.3619 19.0747 79.2841 20.1759 79.2729 20.2093Z" fill="#191825" fill-opacity="0.5"/>
<path d="M95.6019 11.711C94.6119 11.711 93.811 10.9212 93.811 9.95349C93.811 8.95239 94.6119 8.14038 95.6019 8.14038C96.5919 8.14038 97.3928 8.95239 97.3928 9.95349C97.3928 10.9212 96.5919 11.711 95.6019 11.711ZM94.1559 25.0368C94.1225 25.0368 94.1114 25.0256 94.1114 24.9923V14.0358C94.1114 14.0135 94.1225 13.9913 94.1447 13.9913H97.0479C97.0702 13.9913 97.0813 14.0135 97.0813 14.0358V24.9923C97.0813 25.0256 97.0591 25.0368 97.0368 25.0368H94.1559Z" fill="#191825" fill-opacity="0.5"/>
<path d="M60.4854 23.3906C59.9626 23.3906 59.4287 23.3127 58.8058 23.157L58.8169 16.127C59.5399 15.8934 60.1628 15.7933 60.7857 15.7933C62.799 15.7933 64.145 17.2727 64.145 19.4863C64.145 21.8555 62.7101 23.3906 60.4854 23.3906ZM61.2751 13.5464C60.452 13.5464 59.6289 13.691 58.7613 13.9913H55.8692C55.847 13.9913 55.8247 14.0136 55.8247 14.0358V32C56.6923 31.8777 57.7602 31.5662 58.8058 30.8321V25.3705C59.5177 25.4706 60.1072 25.5374 60.6745 25.5374C64.6344 25.5374 67.1928 23.1681 67.1928 19.4974C67.1928 15.9935 64.7568 13.5464 61.2751 13.5464Z" fill="#191825" fill-opacity="0.5"/>
<path d="M88.8722 22.4783C87.9712 22.9566 87.1592 23.1791 86.4029 23.1791C84.612 23.1791 83.533 21.911 83.533 19.7865C83.533 17.3393 84.9012 15.7487 87.0258 15.7487C87.6153 15.7487 88.1826 15.8933 88.8722 16.2047V22.4783ZM88.8722 8.19592V13.9244C88.0269 13.6797 87.2816 13.5685 86.5252 13.5685C83.077 13.5685 80.4852 16.1602 80.4852 19.6085C80.4852 23.0345 82.7766 25.5261 85.9357 25.5261C87.0258 25.5261 88.0491 25.248 89.2504 24.6362V25.6262C90.0402 25.4705 90.9523 25.159 91.8533 24.5139V7.01685C90.9746 7.1392 89.929 7.43953 88.8722 8.19592Z" fill="#191825" fill-opacity="0.5"/>
<path d="M107.148 22.4562C106.269 22.9567 105.524 23.2014 104.857 23.2014C102.932 23.2014 101.787 21.9334 101.787 19.8088C101.787 17.395 103.144 15.771 105.157 15.771C105.691 15.771 106.347 15.9824 107.148 16.4051V22.4562ZM110.129 13.8578C110.129 13.7911 110.073 13.7355 110.007 13.7355H107.66C107.593 13.7355 107.526 13.7911 107.526 13.8578V14.2583H107.471C106.392 13.7799 105.457 13.5686 104.556 13.5686C101.308 13.5686 98.761 16.2605 98.761 19.7087C98.761 23.1903 101.041 25.5262 104.434 25.5262C105.335 25.5262 106.503 25.4595 107.593 24.2136V25.6263C108.36 25.4595 109.273 25.1369 110.129 24.514V13.8578Z" fill="#191825" fill-opacity="0.5"/>
<path d="M34.6904 22.3004H41.9762C41.865 23.1124 41.5869 24.069 40.964 25.0367H33.389C32.4658 25.0367 31.6983 24.3137 31.6093 23.4127C31.6093 23.4016 31.5981 23.3905 31.5981 23.3682V8.99687C31.5981 8.98575 31.6093 8.97462 31.6093 8.9635C31.6983 8.05139 32.4658 7.32837 33.389 7.32837H41.9651C41.8539 8.14037 41.5758 9.11923 40.9418 10.087H34.6904V14.0024H40.8861C40.9084 14.0024 40.9306 14.0246 40.9306 14.0469V16.761C40.9306 16.7832 40.9084 16.8055 40.8861 16.8055H34.6904V22.3004Z" fill="#191825" fill-opacity="0.5"/>
<path d="M25.5695 25.2704C24.8464 25.2704 24.4015 24.7031 24.4015 24.0135C24.4015 23.2793 24.9132 22.7565 25.5695 22.7565C26.2146 22.7565 26.7263 23.2682 26.7263 24.0135C26.7263 24.7587 26.2146 25.2704 25.5695 25.2704ZM25.5695 22.623C24.8353 22.623 24.2013 23.1792 24.2013 24.0135C24.2013 24.8032 24.7686 25.4039 25.5695 25.4039C26.2925 25.4039 26.9265 24.8477 26.9265 24.0135C26.9265 23.1792 26.3036 22.623 25.5695 22.623Z" fill="#191825" fill-opacity="0.5"/>
<path d="M25.2466 23.9022V23.3905H25.5914C25.7694 23.3905 25.9696 23.4128 25.9696 23.6241C25.9696 23.88 25.7805 23.8911 25.5691 23.8911C25.558 23.9022 25.2466 23.9022 25.2466 23.9022ZM26.2143 23.6575C26.2143 23.3238 26.0141 23.1792 25.6136 23.1792H24.9907V24.8255H25.2577V24.1247H25.5135L25.9362 24.8255H26.2477L25.7916 24.1024C26.0363 24.0802 26.2143 23.9578 26.2143 23.6575Z" fill="#191825" fill-opacity="0.5"/>
<path d="M112.532 15.8154C111.808 15.8154 111.364 15.2481 111.364 14.5585C111.364 13.8244 111.875 13.3016 112.532 13.3016C113.177 13.3016 113.688 13.8132 113.688 14.5585C113.688 15.3038 113.177 15.8154 112.532 15.8154ZM112.532 13.1792C111.797 13.1792 111.163 13.7354 111.163 14.5696C111.163 15.3594 111.731 15.96 112.532 15.96C113.255 15.96 113.889 15.4039 113.889 14.5696C113.889 13.7242 113.255 13.1792 112.532 13.1792Z" fill="#191825" fill-opacity="0.5"/>
<path d="M112.198 14.4472V13.9467H112.543C112.721 13.9467 112.921 13.9689 112.921 14.1803C112.921 14.4361 112.732 14.4472 112.521 14.4472H112.198ZM113.177 14.2137C113.177 13.88 112.977 13.7354 112.576 13.7354H111.953V15.3816H112.22V14.6808H112.476L112.899 15.3816H113.21L112.754 14.6586C112.988 14.6363 113.177 14.514 113.177 14.2137Z" fill="#191825" fill-opacity="0.5"/>
<path d="M16.17 10.0759L15.6472 8.58534L11.1534 2.58985L11.9542 2.38963L19.685 9.07476L24.2344 7.77333C24.7683 7.63985 25.3801 7.60648 25.8362 7.60648C24.4124 4.52531 21.7873 1.98919 18.339 0.765622C11.5204 -1.67039 4.01217 1.9002 1.58728 8.72994C0.830892 10.8434 0.664042 13.0236 0.975496 15.0925L11.8653 11.3106L16.17 10.0759Z" fill="#191825" fill-opacity="0.5"/>
<path d="M26.3257 8.78564C25.9252 9.04148 25.3357 9.38631 24.7573 9.5754L20.1967 10.8768L17.16 20.6431L16.3703 20.899L17.0154 13.4463L16.6595 11.9002L12.3881 13.1238L1.08679 15.76C1.98778 20.0981 5.05783 23.8912 9.54054 25.4818C16.3703 27.9178 23.8674 24.3472 26.3034 17.5175C27.349 14.592 27.2823 11.522 26.3257 8.78564Z" fill="#191825" fill-opacity="0.5"/>
<path d="M16.6484 11.8889L17.0043 13.435L16.3592 20.8877L17.149 20.6318L20.1856 10.8655L24.7462 9.5641C25.3246 9.37501 25.9142 9.0413 26.3146 8.77434C26.17 8.3739 26.0143 7.98459 25.8363 7.59527C25.3691 7.59527 24.7684 7.61752 24.2345 7.76212L19.6851 9.06355L11.9543 2.37842L11.1535 2.57864L15.6362 8.57412L16.159 10.0647L11.8542 11.2993L0.964478 15.0813C0.997848 15.3038 1.04234 15.5373 1.08683 15.7598L12.377 13.1013L16.6484 11.8889Z" fill="white"/>
</svg>
