<svg width="79" height="35" viewBox="0 0 79 35" fill="none" xmlns="http://www.w3.org/2000/svg">
<path d="M38.8905 1.38695L36.1091 2.80203L34.1085 1.77731C31.8638 0.655006 30.2048 0.85019 31.2783 2.11889C31.6199 2.55805 32.6934 3.24119 33.6205 3.68036C35.2308 4.46109 35.426 4.75387 36.0603 7.82801C36.4507 9.63346 36.9386 11.0973 37.1826 11.0973C37.3778 11.0973 37.573 9.87744 37.573 8.36477C37.573 5.77858 37.6218 5.68099 38.6953 6.02256C41.2815 6.8033 41.9646 7.19366 41.9646 7.9256C41.9646 8.31597 42.2086 8.65754 42.4526 8.65754C42.7453 8.65754 42.9405 8.31597 42.9405 7.9256C42.9405 7.34005 43.4285 7.43764 45.4779 8.46236C51.3822 11.4389 63.4348 14.7082 64.5083 13.6347C64.9963 13.1468 64.362 12.9516 60.2631 12.2684C56.5058 11.6829 52.4069 10.5606 47.9177 8.85273C44.4532 7.48644 43.4285 6.90089 43.6237 6.36413C43.8677 5.82738 43.7213 5.72979 43.1357 5.92497C42.7453 6.07136 41.5254 5.72979 40.4519 5.09544L38.5489 4.02193L40.8423 1.9725C43.5749 -0.418505 42.8429 -0.662485 38.8905 1.38695Z" fill="black"/>
<path d="M12.6382 10.1215C0.0975919 10.4142 0 10.4142 0 13.8788C0 16.1234 0.975919 17.1481 2.09823 16.0258C2.48859 15.6354 2.48859 15.489 2.00063 15.489C0.731939 15.489 2.391 14.2203 4.39164 13.586C6.83143 12.854 12.6869 12.1221 12.6869 12.5613C12.6869 12.7564 12.2478 13.2932 11.6622 13.83C10.1008 15.245 5.46515 21.9789 3.6109 25.541C1.56147 29.4447 1.51267 31.1525 3.22053 32.5188C4.97719 33.8851 5.17237 33.8363 5.22117 31.9333C5.31876 29.1519 10.3447 19.3927 14.1996 14.4643C15.5171 12.8052 15.8099 12.7077 19.0792 12.4149C22.3973 12.1221 24.3004 11.2926 23.8612 10.2679C23.7636 10.0727 18.6889 9.97508 12.6382 10.1215Z" fill="black"/>
<path d="M65.6794 13.5861C64.2155 15.2451 62.1173 18.2705 61.0438 20.3687C58.9455 24.3212 56.4569 27.005 53.7732 28.1273C51.8701 28.908 50.7478 28.2737 50.7478 26.3218C50.7478 25.3459 50.8942 25.1995 51.3334 25.6387C52.1629 26.4682 54.2123 26.3706 55.5298 25.4435C57.0425 24.37 58.2136 21.979 57.872 20.5639C57.4329 18.8072 54.8467 17.3922 53.2364 17.9777C50.4062 19.0512 47.3809 23.3453 47.3321 26.273C47.3321 27.8833 48.8448 29.8351 50.699 30.6159C52.4557 31.299 54.7003 30.4207 56.8473 28.1761C58.36 26.6146 58.9455 26.3706 58.8967 27.2977C58.8479 29.2984 59.1895 30.2743 60.6046 31.8846C61.4829 32.8605 62.898 33.9828 63.7763 34.3244C68.5095 36.325 74.9994 33.69 77.1464 28.9568C78.2199 26.5658 78.3175 22.9061 77.3904 20.7103C76.6097 18.8072 72.95 15.4891 70.8029 14.6596C68.8999 13.9764 68.2656 14.806 70.1198 15.5867C76.2681 18.2217 78.9031 23.1501 76.8536 28.0785C75.2922 31.7382 71.6325 34.178 67.7776 34.2268C64.7522 34.2268 63.142 33.1045 62.4588 30.5671C61.7269 27.8345 62.5076 24.2724 64.0203 23.2965C65.533 22.3206 70.7542 17.3922 70.7542 16.953C70.7542 16.709 70.3638 16.4162 69.9246 16.2699C69.3391 16.0259 68.5095 16.6602 66.9481 18.4169C65.777 19.7832 64.7035 20.8079 64.5571 20.6615C64.3131 20.4175 66.3137 17.1482 68.4607 14.3668C69.9246 12.5126 70.7542 12.0734 70.7542 13.2445C70.7542 14.2204 72.0716 14.6108 72.4132 13.7325C72.7548 12.8053 72.0228 11.2927 70.9493 10.9023C69.2415 10.268 68.2656 10.7559 65.6794 13.5861ZM55.6274 20.3199C55.6274 21.1495 53.3828 24.0284 52.5533 24.1748C51.3334 24.4188 51.5285 23.7844 53.2364 21.6862C54.6515 19.9783 55.6274 19.3928 55.6274 20.3199Z" fill="black"/>
<path d="M14.1508 17.7825C13.4188 18.7096 13.1749 19.5391 13.3701 20.4174C13.5652 21.3934 13.2725 22.0277 12.1502 23.1012C10.7839 24.4187 10.2959 25.7362 11.1742 25.7362C11.4182 25.7362 12.2477 25.0043 12.9797 24.1259C13.7116 23.2964 14.9315 22.3205 15.7123 21.9789C17.2737 21.2958 17.2737 21.2958 15.1267 24.5163C13.1749 27.3953 12.9797 28.3224 14.1996 29.7863C15.6147 31.6405 17.1273 31.4453 19.2256 29.1519C21.2262 26.9561 21.4702 26.8097 21.4702 28.1272C21.4702 29.0543 23.5684 31.1038 24.4955 31.1038C24.7883 31.1038 25.5202 30.4694 26.2034 29.7375L27.4233 28.3224L28.7896 29.7375C29.5703 30.4694 30.3998 31.1038 30.6926 31.1038C30.9854 31.1038 32.1077 30.2254 33.23 29.1519C35.5234 26.9561 35.621 26.9073 35.621 27.8832C35.621 28.2736 36.3042 29.1519 37.0849 29.8351C38.3536 30.8598 38.744 30.9574 39.9639 30.567C42.0621 29.8351 45.8682 25.8338 47.1369 23.0524C48.5519 20.0759 48.5519 19.8319 47.2832 18.2216C45.8682 16.4162 45.0386 16.5626 45.2826 18.6608C45.429 19.8807 45.1362 20.9542 44.2091 22.5157C42.7452 25.0043 39.6223 28.4688 39.2319 28.0296C38.6952 27.4929 39.5735 24.8579 41.1838 22.1741C42.3549 20.2223 42.6964 19.3439 42.3061 18.9536C41.1838 17.8313 40.0126 18.5144 37.8656 21.491C35.865 24.3211 31.9125 28.0296 31.4246 27.5905C31.327 27.4441 32.1077 25.8826 33.23 24.0771C34.3035 22.2717 35.1331 20.7102 35.0355 20.6126C33.9132 19.4903 30.8878 17.9289 29.8143 17.9289C28.204 17.9289 25.1299 20.0271 23.3244 22.4181C21.8118 24.4187 17.0785 28.4688 17.0785 27.8344C17.0785 27.5417 18.0545 25.8338 19.2744 23.9795C21.7142 20.2223 21.8118 19.7831 20.6894 18.6608C19.9575 17.9776 19.7623 17.9776 18.2984 18.9048C16.3466 20.1247 15.9562 20.1247 16.6882 18.9536C17.1273 18.2216 17.1273 17.8313 16.6394 17.2457C15.7611 16.1722 15.3707 16.2698 14.1508 17.7825ZM30.839 21.6861C29.0336 24.1747 25.1787 27.8832 25.0323 27.3465C24.5443 25.9802 29.2287 20.3686 30.839 20.3686C31.7661 20.3686 31.7661 20.3686 30.839 21.6861Z" fill="black"/>
</svg>
