<svg width="82" height="76" viewBox="0 0 82 76" fill="none" xmlns="http://www.w3.org/2000/svg">
<path d="M59.1282 13.28C67.6085 6.00366 79.2874 -1.35219 80.8732 0.455958C82.4318 2.31947 73.3404 12.6617 64.86 19.9381C64.0792 20.6197 63.3256 21.2459 62.572 21.8722C62.5422 23.4031 62.4566 26.658 62.336 30.7544C62.3773 30.7403 62.3491 30.6578 62.4175 30.5883L64.7057 28.6542C64.9935 28.4176 65.4353 28.497 65.7273 28.8119L67.6332 31.0175C67.9252 31.3324 67.9012 31.8014 67.6134 32.0381L65.3253 33.9722C65.3253 33.9722 65.0365 34.0709 64.8714 34.1273L62.2411 36.4088C62.1436 39.8983 62.0623 43.7047 61.9527 47.4287L64.1995 45.5087C64.4873 45.2721 64.9292 45.3515 65.2212 45.6664L67.1271 47.872C67.4191 48.187 67.395 48.656 67.1072 48.8926L64.8191 50.8267C64.8191 50.8267 64.5303 50.9255 64.3652 50.9819L61.8034 53.1939C61.5174 62.7383 61.2471 70.7107 61.1385 70.9321C60.8398 71.5411 57.3582 74.2979 57.3582 74.2979C56.5774 74.9796 55.864 75.4538 55.7804 75.3441C55.7522 75.2616 56.532 74.4421 57.2715 73.7746L54.2928 55.6228C53.6348 56.1242 53.03 56.377 52.9323 56.226C52.7652 56.0067 53.2703 55.3271 54.0511 54.6455L54.1336 54.6173L53.5406 50.9952C52.9097 51.4413 52.3603 51.7213 52.2072 51.5431C52.0401 51.3238 52.5451 50.6443 53.3259 49.9627L52.8046 46.6847L51.8236 44.6238C51.0971 45.1947 50.3968 45.5723 50.2296 45.3529C50.0625 45.1336 50.5676 44.454 51.3484 43.7724L51.3896 43.7583L49.455 39.581C48.7284 40.1519 48.0552 40.4742 47.9021 40.2961C47.735 40.0768 48.2401 39.3972 49.0209 38.7156L49.0621 38.7015L47.2957 34.8815C41.527 39.7103 39.2106 41.5619 35.0046 45.1653C30.7574 48.7829 26.4105 51.9737 22.5827 54.5263C22.4151 59.6986 22.1766 70.0563 22.1766 70.0563L19.946 72.2933L13.6186 59.8482C12.7119 60.2963 11.9421 60.6056 11.3644 60.803C9.48577 62.1824 8.27822 62.9638 8.13928 62.827C7.98624 62.6489 8.9159 61.5938 10.5036 60.0373C10.7893 59.525 11.2802 58.8042 11.9905 57.9163L0.592757 49.6465L3.14361 47.8069C3.14361 47.8069 14.0623 49.2821 19.0174 49.8925C22.0126 46.6568 25.5975 42.9892 29.4159 39.1956C34.6905 34.674 36.9504 32.6573 41.7309 28.4428L38.2658 26.1249C37.485 26.8065 36.7022 27.2123 36.5351 26.993C36.3821 26.8149 36.8186 26.2049 37.5169 25.5514L33.6916 22.9881L33.6503 23.0022C32.8694 23.6838 32.0865 24.0897 31.9194 23.8703C31.7664 23.6922 32.1889 23.0409 32.9013 22.4287L30.9886 21.1471L27.823 20.1094C27.0422 20.791 26.2592 21.1968 26.0921 20.9775C25.9391 20.7994 26.2801 20.3141 26.8275 19.7584L23.3577 18.6403L23.2753 18.6685C22.5086 19.3913 21.7115 19.7559 21.5585 19.5778C21.4055 19.3997 21.7736 18.8592 22.3622 18.2893L4.87507 12.5618C4.12141 13.188 3.16153 13.8848 3.09206 13.8163C3.0085 13.7067 3.5829 13.0956 4.36371 12.414C4.36371 12.414 7.56747 9.38349 8.22765 9.15784C8.47521 9.07322 16.4115 10.0471 25.8525 11.244L28.4144 9.03196C28.4144 9.03196 28.4807 8.68671 28.5904 8.60314L30.8786 6.66899C31.1664 6.43238 31.6082 6.51177 31.9002 6.82671L33.8061 9.03232C34.0981 9.34726 34.074 9.8163 33.7862 10.0529L31.5394 11.9729C35.2525 12.4549 39.0067 12.9228 42.4852 13.3927L45.1154 11.1113C45.1154 11.1113 45.1817 10.766 45.2914 10.6825L47.5796 8.74832C47.8674 8.51171 48.3092 8.59111 48.6012 8.90604L50.5071 11.1117C50.7991 11.4266 50.775 11.8956 50.4872 12.1322L48.1992 14.0664C48.1992 14.0664 48.0753 14.1087 48.0341 14.1228C52.037 14.6439 55.2256 15.0747 56.7716 15.2836C57.5253 14.6574 58.2649 13.9898 59.0457 13.3082L59.1282 13.28Z" fill="#5A4DC5"/>
</svg>
