<svg width="169" height="32" viewBox="0 0 169 32" fill="none" xmlns="http://www.w3.org/2000/svg">
<path d="M99.8329 31.141L113.137 1.03261C113.347 0.575727 113.101 0.18281 112.589 0.18281H103.269C102.996 0.198309 102.732 0.285992 102.504 0.4369C102.276 0.587809 102.092 0.796533 101.971 1.04174L88.8312 31.141C88.6394 31.607 88.8861 31.9908 89.3886 31.9908H98.5354C99.0471 31.9908 99.6319 31.607 99.8329 31.141ZM147.54 23.036L168.191 0.191948H144.041L138.576 8.99146H148.052L127.063 31.9999H152.621L162.142 23.036H147.54ZM59.1614 0.18281H43.1706C42.6966 0.210282 42.2382 0.362492 41.8419 0.624037C41.4455 0.885583 41.1253 1.24718 40.9137 1.67224L28.3312 30.5105C27.9657 31.3329 28.4134 31.9999 29.3089 31.9999H37.2312C38.1267 31.9999 39.1501 31.3329 39.4973 30.5197L43.0884 22.3415H46.8074C47.9679 22.2684 48.4613 22.6979 47.8217 24.0411L45.0621 30.5105C44.7149 31.3329 45.1535 31.9999 46.049 31.9999H53.9713C54.4472 31.975 54.9078 31.8239 55.3061 31.5621C55.7043 31.3004 56.0257 30.9375 56.2374 30.5105L59.8376 22.1862C60.9707 19.4814 59.3351 17.3889 56.9593 17.2793C59.0609 16.5208 60.9981 14.4283 61.8662 12.5277L63.7302 8.14166C65.9781 3.04288 64.379 0.118847 59.1614 0.191948M54.5013 9.28386L52.5275 13.6242C52.0707 14.6659 51.4128 14.7481 50.7549 14.7207H46.3048L49.2837 7.95891H53.551C54.5926 8.02287 54.8576 8.39752 54.5013 9.28386ZM90.2841 0.173672H73.343C73.0037 0.191354 72.6752 0.2988 72.391 0.485029C72.1069 0.671259 71.8773 0.929594 71.7256 1.23363L58.7594 30.9308C58.5127 31.5156 58.8142 31.9817 59.4538 31.9817H77.592C83.3395 31.8994 86.6382 30.6293 89.2607 24.5437L91.1248 20.4866C92.5868 17.0143 91.1522 15.5066 88.4109 15.068C90.6953 14.3644 92.4132 12.217 93.1533 10.3255L94.6702 7.10911C96.5342 2.81444 94.9809 0.118847 90.275 0.173672M81.9689 20.0936L80.8176 22.4055C80.2419 24.0137 79.2368 24.4523 77.8204 24.4706H72.5206L75.0609 18.4854H80.3607C81.8592 18.5951 82.4441 18.9606 81.9689 20.0936ZM85.0117 9.4392L84.2168 11.2667L84.098 11.5043C83.966 11.8855 83.7115 12.2124 83.3744 12.4338C83.0372 12.6553 82.6362 12.759 82.2339 12.7287H77.6377L79.7393 7.88581H84.4269C85.2676 7.94064 85.4046 8.48889 85.0117 9.4392ZM116.07 0.18281L112.132 8.99146H117.752C118.136 8.99146 118.318 9.26559 118.163 9.62195L108.34 31.3694C108.176 31.7167 108.367 31.9999 108.751 31.9999H118.757C119.141 31.9999 119.579 31.7167 119.735 31.3603L129.165 9.62195C129.255 9.43911 129.392 9.28353 129.562 9.17115C129.733 9.05876 129.93 8.9936 130.133 8.98232H135.899L141.327 0.18281H116.07ZM33.0553 11.02L34.298 8.30614C36.8017 2.586 35.1478 0.127984 30.2318 0.191948H18.3986C13.5283 0.127984 9.47116 2.86926 7.22331 7.96805L3.56827 18.2935H0.114258L6.72074 27.2118L17.6402 18.2935H14.8623L18.0696 10.8464C18.5905 9.62195 19.486 9.03715 20.4454 8.99146H22.3095C22.7481 9.00974 23.0496 9.1468 23.2233 9.33869L29.0165 4.46835L33.0553 11.02Z" fill="#191825" fill-opacity="0.5"/>
</svg>
