<svg width="268" height="310" viewBox="0 0 268 310" fill="none" xmlns="http://www.w3.org/2000/svg">
<path d="M288.003 135.855C287.532 135.273 287.643 134.413 288.225 133.969C288.808 133.497 289.668 133.608 290.112 134.191C291.804 136.299 293.441 138.408 295.022 140.516C295.466 141.099 295.355 141.959 294.772 142.403C294.523 142.597 294.245 142.68 293.968 142.68C293.552 142.68 293.163 142.486 292.886 142.153C291.305 140.072 289.668 137.964 288.003 135.883V135.855ZM307.09 159.741C307.7 159.325 308.56 159.519 308.949 160.13C310.447 162.405 311.889 164.652 313.276 166.899C313.665 167.537 313.471 168.369 312.832 168.758C312.611 168.896 312.361 168.952 312.111 168.952C311.667 168.952 311.223 168.73 310.974 168.314C309.587 166.094 308.172 163.847 306.701 161.6C306.285 160.99 306.452 160.13 307.09 159.741ZM269.25 109.833C271.081 111.831 272.856 113.8 274.632 115.77C275.131 116.325 275.075 117.185 274.521 117.684C274.271 117.906 273.938 118.017 273.633 118.017C273.272 118.017 272.884 117.851 272.634 117.573C270.886 115.604 269.111 113.634 267.308 111.664C266.808 111.109 266.836 110.249 267.391 109.75C267.946 109.251 268.806 109.278 269.305 109.833H269.25ZM277.988 121.679C278.543 121.208 279.403 121.263 279.903 121.818C281.65 123.871 283.37 125.924 285.063 127.949C285.534 128.532 285.451 129.364 284.896 129.863C284.646 130.057 284.341 130.168 284.036 130.168C283.648 130.168 283.259 130.002 282.982 129.669C281.317 127.644 279.597 125.619 277.85 123.566C277.378 123.011 277.433 122.151 277.988 121.651V121.679ZM245.003 86.9183C245.53 86.3912 246.39 86.3635 246.917 86.8906C248.859 88.7771 250.746 90.6358 252.632 92.4945C253.159 93.0216 253.159 93.8816 252.632 94.4087C252.382 94.6861 252.022 94.7971 251.689 94.7971C251.356 94.7971 250.995 94.6584 250.746 94.4087C248.887 92.55 247 90.6913 245.058 88.8325C244.531 88.3054 244.504 87.4454 245.031 86.9183H245.003ZM261.815 105.838C260.011 103.924 258.18 102.01 256.294 100.096C255.767 99.5687 255.795 98.7087 256.294 98.1816C256.821 97.6545 257.681 97.6823 258.208 98.1816C260.095 100.124 261.953 102.038 263.757 103.952C264.256 104.507 264.256 105.339 263.701 105.866C263.451 106.116 263.119 106.227 262.786 106.227C262.425 106.227 262.064 106.088 261.815 105.811V105.838ZM342.489 258.587C341.74 258.587 341.157 258.004 341.129 257.255C341.129 254.647 340.991 252.012 340.797 249.376C340.741 248.627 341.296 247.989 342.045 247.934C342.766 247.906 343.432 248.433 343.487 249.182C343.709 251.873 343.82 254.592 343.848 257.255C343.848 258.004 343.266 258.614 342.517 258.614L342.489 258.587ZM340.075 272.957C340.464 270.405 340.741 267.769 340.907 265.134C340.963 264.385 341.601 263.83 342.35 263.885C343.099 263.941 343.654 264.579 343.598 265.328C343.432 268.019 343.127 270.738 342.738 273.373C342.627 274.039 342.073 274.538 341.407 274.538C341.351 274.538 341.268 274.538 341.213 274.538C340.464 274.427 339.964 273.734 340.075 273.012V272.957ZM341.435 242.663C341.435 242.663 341.296 242.663 341.24 242.663C340.575 242.663 339.992 242.163 339.909 241.497C339.548 238.945 339.104 236.31 338.577 233.702C338.438 232.981 338.91 232.259 339.631 232.121C340.353 231.982 341.074 232.454 341.213 233.175C341.74 235.838 342.211 238.501 342.572 241.109C342.683 241.858 342.156 242.524 341.435 242.635V242.663ZM338.438 226.988C338.438 226.988 338.216 227.044 338.106 227.044C337.495 227.044 336.968 226.628 336.802 226.045C336.164 223.548 335.415 220.968 334.61 218.444C334.388 217.722 334.776 216.973 335.498 216.751C336.219 216.53 336.968 216.918 337.19 217.639C337.995 220.219 338.744 222.827 339.409 225.379C339.604 226.101 339.16 226.85 338.438 227.016V226.988ZM303.345 155.58C302.929 155.58 302.485 155.386 302.235 154.997C300.737 152.861 299.211 150.697 297.63 148.506C297.186 147.896 297.325 147.063 297.935 146.619C298.545 146.176 299.378 146.314 299.821 146.925C301.43 149.116 302.956 151.28 304.454 153.472C304.87 154.082 304.732 154.914 304.121 155.358C303.899 155.525 303.622 155.608 303.345 155.608V155.58ZM327.813 196.916C327.619 196.999 327.453 197.027 327.258 197.027C326.731 197.027 326.26 196.722 326.038 196.25C324.956 193.892 323.818 191.506 322.625 189.093C322.293 188.427 322.57 187.622 323.236 187.289C323.902 186.956 324.706 187.234 325.039 187.9C326.26 190.341 327.425 192.755 328.507 195.14C328.812 195.806 328.507 196.611 327.841 196.916H327.813ZM338.577 280.697C338.744 279.976 339.465 279.504 340.186 279.698C340.907 279.865 341.351 280.586 341.185 281.307C340.575 283.943 339.826 286.578 338.993 289.103C338.799 289.658 338.272 290.018 337.717 290.018C337.578 290.018 337.44 290.018 337.301 289.963C336.607 289.741 336.219 288.964 336.441 288.271C337.246 285.802 337.967 283.249 338.577 280.697ZM329.922 201.771C330.615 201.493 331.392 201.826 331.669 202.492C332.696 205.017 333.667 207.513 334.582 209.982C334.832 210.676 334.471 211.453 333.778 211.702C333.639 211.758 333.473 211.786 333.306 211.786C332.751 211.786 332.224 211.453 332.03 210.898C331.142 208.457 330.199 205.988 329.173 203.491C328.895 202.797 329.228 202.02 329.894 201.743L329.922 201.771ZM333.667 295.622C333.972 294.929 334.749 294.624 335.442 294.929C336.136 295.234 336.441 296.011 336.136 296.704C335.054 299.173 333.861 301.615 332.557 304C332.307 304.444 331.864 304.694 331.364 304.694C331.142 304.694 330.92 304.639 330.726 304.528C330.06 304.167 329.838 303.362 330.199 302.697C331.447 300.394 332.613 298.036 333.667 295.65V295.622ZM315.523 173.28C316.162 172.891 316.994 173.113 317.382 173.779C318.742 176.137 320.045 178.467 321.322 180.77C321.682 181.436 321.433 182.24 320.767 182.601C320.572 182.712 320.351 182.767 320.129 182.767C319.657 182.767 319.185 182.518 318.936 182.074C317.687 179.771 316.383 177.469 315.052 175.138C314.663 174.5 314.885 173.668 315.551 173.307L315.523 173.28ZM209.493 56.7904C208.91 56.3188 208.855 55.4588 209.327 54.8762C209.798 54.3213 210.658 54.2381 211.241 54.7097C213.294 56.4575 215.319 58.1775 217.316 59.8975C217.871 60.3969 217.954 61.2291 217.455 61.8117C217.178 62.1169 216.817 62.2833 216.429 62.2833C216.123 62.2833 215.79 62.1723 215.541 61.9504C213.543 60.2304 211.518 58.5104 209.465 56.7626L209.493 56.7904ZM223.364 65.1685C225.389 66.944 227.387 68.7195 229.329 70.495C229.883 70.9943 229.939 71.8543 229.44 72.4092C229.162 72.7144 228.802 72.8531 228.441 72.8531C228.108 72.8531 227.803 72.7421 227.525 72.5202C225.583 70.7447 223.586 68.9969 221.561 67.2214C221.006 66.7221 220.951 65.8898 221.45 65.3072C221.949 64.7524 222.809 64.6969 223.364 65.1962V65.1685ZM235.238 75.877C237.207 77.7079 239.177 79.5389 241.091 81.3422C241.618 81.8693 241.646 82.7015 241.147 83.2564C240.869 83.5338 240.536 83.6725 240.176 83.6725C239.843 83.6725 239.51 83.5615 239.26 83.3119C237.346 81.5086 235.404 79.6776 233.434 77.8744C232.88 77.375 232.852 76.515 233.351 75.9602C233.851 75.4053 234.711 75.3776 235.265 75.877H235.238ZM197.009 44.6948C197.481 44.1122 198.341 44.029 198.896 44.5006C200.976 46.1929 203.057 47.8852 205.082 49.5774C205.665 50.049 205.748 50.909 205.248 51.4916C204.971 51.8245 204.583 51.991 204.194 51.991C203.889 51.991 203.584 51.88 203.334 51.6858C201.309 49.9936 199.256 48.329 197.176 46.6368C196.593 46.1651 196.51 45.3051 196.981 44.7503L197.009 44.6948Z" fill="#D1D1D1"/>
<path d="M151.015 12.2368C145.467 7.7981 139.447 1.38967 140.418 0.196762C141.388 -0.99615 148.962 3.44259 154.511 7.90907C155.01 8.3252 155.509 8.71359 155.981 9.10198C156.952 8.93553 158.977 8.60262 161.557 8.18649C161.529 8.18649 161.474 8.18649 161.446 8.18649L159.948 6.99358C159.754 6.85487 159.754 6.54971 159.948 6.35551L161.113 4.91292C161.28 4.69098 161.557 4.6355 161.751 4.80196L163.249 5.99486C163.249 5.99486 163.36 6.16132 163.388 6.27228L165.136 7.65939C167.327 7.29874 169.713 6.91035 172.071 6.52196L170.601 5.35679C170.407 5.21808 170.407 4.91292 170.601 4.71873L171.766 3.27613C171.933 3.0542 172.21 2.99872 172.404 3.16517L173.902 4.35808C173.902 4.35808 174.013 4.52453 174.041 4.6355L175.733 5.96712C181.726 4.99615 186.747 4.21937 186.913 4.27485C187.329 4.41356 189.466 6.24454 189.466 6.24454C189.993 6.66067 190.353 7.04907 190.326 7.10455C190.27 7.16004 189.66 6.7439 189.16 6.35551L178.147 10.3781C178.535 10.7388 178.757 11.0717 178.674 11.1826C178.563 11.3214 178.064 11.0717 177.564 10.6555L177.509 10.6001L175.345 11.4046C175.706 11.7375 175.927 12.0704 175.844 12.1814C175.733 12.3201 175.234 12.0704 174.735 11.6543L172.765 12.3478L171.572 13.2078C172.016 13.5962 172.321 13.9846 172.238 14.0956C172.127 14.2343 171.627 13.9846 171.128 13.5685H171.1L168.742 15.233C169.186 15.6214 169.491 16.0098 169.38 16.1207C169.269 16.2595 168.77 16.0098 168.271 15.5936L166.107 17.1472C169.796 20.1711 171.239 21.3917 173.985 23.6111C176.76 25.8305 179.284 28.1608 181.309 30.2415C184.583 29.7421 191.047 28.6602 191.047 28.6602L192.711 29.7699L185.693 35.2073C186.081 35.7344 186.386 36.1506 186.553 36.4835C187.635 37.4822 188.273 38.148 188.189 38.259C188.106 38.3699 187.329 37.9261 186.164 37.0938C185.804 36.9828 185.304 36.7331 184.666 36.428L180.866 44.5564L179.395 43.1971C179.395 43.1971 179.007 36.206 178.785 33.0157C176.399 31.5176 173.68 29.7421 170.851 27.7724C167.411 25.026 165.857 23.8608 162.667 21.364L161.64 23.8053C162.167 24.2492 162.5 24.6653 162.389 24.804C162.306 24.915 161.862 24.7208 161.363 24.3602L160.225 27.0511H160.253C160.78 27.495 161.113 27.9389 161.002 28.0499C160.919 28.1608 160.447 27.9666 159.976 27.606L159.393 28.9376L159.116 31.0183C159.643 31.4344 159.976 31.8783 159.865 32.017C159.782 32.128 159.421 31.9892 159.005 31.6841L158.7 33.9867H158.755C159.282 34.4305 159.615 34.8744 159.504 35.0131C159.421 35.1241 159.032 34.9576 158.616 34.6525L157.118 46.2764C157.59 46.6926 158.145 47.1919 158.117 47.2474C158.062 47.3029 157.618 47.0255 157.091 46.6093C157.091 46.6093 154.816 44.9171 154.621 44.5564C154.538 44.4177 154.205 39.3409 153.817 33.2931L152.125 31.9615C152.125 31.9615 151.903 31.9615 151.82 31.906L150.321 30.7131C150.127 30.5744 150.127 30.2692 150.321 30.075L151.487 28.6324C151.653 28.4105 151.931 28.355 152.125 28.5215L153.595 29.6866C153.456 27.3008 153.318 24.915 153.179 22.6679L151.431 21.2808C151.431 21.2808 151.209 21.2808 151.126 21.2253L149.628 20.0324C149.434 19.8937 149.434 19.5885 149.628 19.3943L150.793 17.9517C150.96 17.7298 151.237 17.6743 151.431 17.8408L152.929 19.0337C152.929 19.0337 152.929 19.0892 152.985 19.1446C152.818 16.5646 152.707 14.5394 152.652 13.5407C152.18 13.1523 151.681 12.7639 151.154 12.3478L151.015 12.2368Z" fill="#D1D1D1"/>
</svg>
