<svg width="305" height="310" viewBox="0 0 305 310" fill="none" xmlns="http://www.w3.org/2000/svg">
<path d="M16.8449 135.855C17.3165 135.273 17.2056 134.413 16.623 133.969C16.0404 133.497 15.1804 133.608 14.7365 134.191C13.0442 136.299 11.4074 138.408 9.82615 140.516C9.38227 141.099 9.49324 141.959 10.0758 142.403C10.3255 142.597 10.6029 142.68 10.8803 142.68C11.2965 142.68 11.6849 142.486 11.9623 142.153C13.5436 140.072 15.1804 137.964 16.8449 135.883V135.855ZM-2.24168 159.741C-2.85201 159.325 -3.71201 159.519 -4.10041 160.13C-5.59848 162.405 -7.04107 164.652 -8.42818 166.899C-8.81657 167.537 -8.62237 168.369 -7.9843 168.758C-7.76237 168.896 -7.51269 168.952 -7.26301 168.952C-6.81913 168.952 -6.37526 168.73 -6.12558 168.314C-4.73847 166.094 -3.32362 163.847 -1.85329 161.6C-1.43716 160.99 -1.60361 160.13 -2.24168 159.741ZM35.5986 109.833C33.7676 111.831 31.9921 113.8 30.2166 115.77C29.7172 116.325 29.7727 117.185 30.3276 117.684C30.5772 117.906 30.9102 118.017 31.2153 118.017C31.576 118.017 31.9644 117.851 32.214 117.573C33.9618 115.604 35.7373 113.634 37.5405 111.664C38.0399 111.109 38.0121 110.249 37.4573 109.75C36.9025 109.251 36.0424 109.278 35.5431 109.833H35.5986ZM26.8598 121.679C26.305 121.208 25.445 121.263 24.9456 121.818C23.1978 123.871 21.4778 125.924 19.7856 127.949C19.3139 128.532 19.3972 129.364 19.952 129.863C20.2017 130.057 20.5069 130.168 20.812 130.168C21.2004 130.168 21.5888 130.002 21.8662 129.669C23.5308 127.644 25.2508 125.619 26.9985 123.566C27.4701 123.011 27.4146 122.151 26.8598 121.651V121.679ZM59.8452 86.9183C59.3181 86.3912 58.4581 86.3635 57.931 86.8906C55.989 88.7771 54.1026 90.6358 52.2161 92.4945C51.689 93.0216 51.689 93.8816 52.2161 94.4087C52.4658 94.6861 52.8264 94.7971 53.1593 94.7971C53.4922 94.7971 53.8529 94.6584 54.1026 94.4087C55.9613 92.55 57.8477 90.6913 59.7897 88.8325C60.3168 88.3054 60.3446 87.4454 59.8175 86.9183H59.8452ZM43.0335 105.838C44.8367 103.924 46.6677 102.01 48.5541 100.096C49.0812 99.5687 49.0535 98.7087 48.5541 98.1816C48.027 97.6545 47.167 97.6823 46.6399 98.1816C44.7535 100.124 42.8948 102.038 41.0915 103.952C40.5922 104.507 40.5922 105.339 41.147 105.866C41.3967 106.116 41.7296 106.227 42.0625 106.227C42.4231 106.227 42.7838 106.088 43.0335 105.811V105.838ZM-37.6406 258.587C-36.8916 258.587 -36.309 258.004 -36.2813 257.255C-36.2813 254.647 -36.1426 252.012 -35.9484 249.376C-35.8929 248.627 -36.4477 247.989 -37.1968 247.934C-37.9181 247.906 -38.5839 248.433 -38.6394 249.182C-38.8613 251.873 -38.9723 254.592 -39 257.255C-39 258.004 -38.4174 258.614 -37.6684 258.614L-37.6406 258.587ZM-35.2271 272.957C-35.6155 270.405 -35.8929 267.769 -36.0593 265.134C-36.1148 264.385 -36.7529 263.83 -37.5019 263.885C-38.251 263.941 -38.8058 264.579 -38.7503 265.328C-38.5839 268.019 -38.2787 270.738 -37.8903 273.373C-37.7793 274.039 -37.2245 274.538 -36.5587 274.538C-36.5032 274.538 -36.42 274.538 -36.3645 274.538C-35.6155 274.427 -35.1161 273.734 -35.2271 273.012V272.957ZM-36.5864 242.663C-36.5864 242.663 -36.4477 242.663 -36.3922 242.663C-35.7264 242.663 -35.1438 242.163 -35.0606 241.497C-34.7 238.945 -34.2561 236.31 -33.729 233.702C-33.5903 232.981 -34.0619 232.259 -34.7832 232.121C-35.5045 231.982 -36.2258 232.454 -36.3645 233.175C-36.8916 235.838 -37.3632 238.501 -37.7239 241.109C-37.8348 241.858 -37.3077 242.524 -36.5864 242.635V242.663ZM-33.5903 226.988C-33.5903 226.988 -33.3683 227.044 -33.2574 227.044C-32.6471 227.044 -32.12 226.628 -31.9535 226.045C-31.3154 223.548 -30.5664 220.968 -29.7619 218.444C-29.5399 217.722 -29.9283 216.973 -30.6496 216.751C-31.3709 216.53 -32.12 216.918 -32.3419 217.639C-33.1464 220.219 -33.8954 222.827 -34.5613 225.379C-34.7555 226.101 -34.3116 226.85 -33.5903 227.016V226.988ZM1.50351 155.58C1.91964 155.58 2.36351 155.386 2.61319 154.997C4.11126 152.861 5.63708 150.697 7.21838 148.506C7.66225 147.896 7.52355 147.063 6.91322 146.619C6.30289 146.176 5.47063 146.314 5.02675 146.925C3.41771 149.116 1.89189 151.28 0.393818 153.472C-0.022316 154.082 0.116398 154.914 0.726723 155.358C0.948662 155.525 1.22608 155.608 1.50351 155.608V155.58ZM-22.9651 196.916C-22.7709 196.999 -22.6044 197.027 -22.4102 197.027C-21.8831 197.027 -21.4115 196.722 -21.1896 196.25C-20.1076 193.892 -18.9702 191.506 -17.7773 189.093C-17.4444 188.427 -17.7218 187.622 -18.3876 187.289C-19.0534 186.956 -19.8579 187.234 -20.1908 187.9C-21.4115 190.341 -22.5767 192.755 -23.6586 195.14C-23.9638 195.806 -23.6586 196.611 -22.9928 196.916H-22.9651ZM-33.729 280.697C-33.8954 279.976 -34.6167 279.504 -35.338 279.698C-36.0593 279.865 -36.5032 280.586 -36.3368 281.307C-35.7264 283.943 -34.9774 286.578 -34.1451 289.103C-33.9509 289.658 -33.4238 290.018 -32.869 290.018C-32.7303 290.018 -32.5916 290.018 -32.4529 289.963C-31.7593 289.741 -31.3709 288.964 -31.5929 288.271C-32.3974 285.802 -33.1187 283.249 -33.729 280.697ZM-25.0735 201.771C-25.767 201.493 -26.5438 201.826 -26.8212 202.492C-27.8477 205.017 -28.8186 207.513 -29.7341 209.982C-29.9838 210.676 -29.6232 211.453 -28.9296 211.702C-28.7909 211.758 -28.6244 211.786 -28.458 211.786C-27.9031 211.786 -27.376 211.453 -27.1819 210.898C-26.2941 208.457 -25.3509 205.988 -24.3244 203.491C-24.047 202.797 -24.3799 202.02 -25.0457 201.743L-25.0735 201.771ZM-28.8186 295.622C-29.1238 294.929 -29.9006 294.624 -30.5941 294.929C-31.2877 295.234 -31.5929 296.011 -31.2877 296.704C-30.2057 299.173 -29.0128 301.615 -27.709 304C-27.4593 304.444 -27.0154 304.694 -26.516 304.694C-26.2941 304.694 -26.0722 304.639 -25.878 304.528C-25.2122 304.167 -24.9902 303.362 -25.3509 302.697C-26.5993 300.394 -27.7644 298.036 -28.8186 295.65V295.622ZM-10.6753 173.28C-11.3134 172.891 -12.1456 173.113 -12.534 173.779C-13.8934 176.137 -15.1973 178.467 -16.4734 180.77C-16.834 181.436 -16.5844 182.24 -15.9185 182.601C-15.7244 182.712 -15.5024 182.767 -15.2805 182.767C-14.8089 182.767 -14.3372 182.518 -14.0876 182.074C-12.8392 179.771 -11.5353 177.469 -10.2037 175.138C-9.81528 174.5 -10.0372 173.668 -10.703 173.307L-10.6753 173.28ZM95.3551 56.7904C95.9377 56.3188 95.9932 55.4588 95.5216 54.8762C95.0499 54.3213 94.1899 54.2381 93.6074 54.7097C91.5544 56.4575 89.5293 58.1775 87.5318 59.8975C86.977 60.3969 86.8938 61.2291 87.3931 61.8117C87.6705 62.1169 88.0312 62.2833 88.4196 62.2833C88.7247 62.2833 89.0576 62.1723 89.3073 61.9504C91.3048 60.2304 93.3299 58.5104 95.3828 56.7626L95.3551 56.7904ZM81.484 65.1685C79.4589 66.944 77.4614 68.7195 75.5195 70.495C74.9647 70.9943 74.9092 71.8543 75.4085 72.4092C75.6859 72.7144 76.0466 72.8531 76.4072 72.8531C76.7402 72.8531 77.0453 72.7421 77.3227 72.5202C79.2647 70.7447 81.2621 68.9969 83.2873 67.2214C83.8421 66.7221 83.8976 65.8898 83.3983 65.3072C82.8989 64.7524 82.0389 64.6969 81.484 65.1962V65.1685ZM69.6104 75.877C67.6407 77.7079 65.671 79.5389 63.7568 81.3422C63.2297 81.8693 63.202 82.7015 63.7013 83.2564C63.9788 83.5338 64.3117 83.6725 64.6723 83.6725C65.0052 83.6725 65.3381 83.5615 65.5878 83.3119C67.502 81.5086 69.444 79.6776 71.4137 77.8744C71.9685 77.375 71.9962 76.515 71.4969 75.9602C70.9975 75.4053 70.1375 75.3776 69.5827 75.877H69.6104ZM107.839 44.6948C107.367 44.1122 106.507 44.029 105.953 44.5006C103.872 46.1929 101.791 47.8852 99.7661 49.5774C99.1835 50.049 99.1003 50.909 99.5997 51.4916C99.8771 51.8245 100.265 51.991 100.654 51.991C100.959 51.991 101.264 51.88 101.514 51.6858C103.539 49.9936 105.592 48.329 107.673 46.6368C108.255 46.1651 108.338 45.3051 107.867 44.7503L107.839 44.6948Z" fill="#D1D1D1"/>
<path d="M153.833 12.2368C159.382 7.7981 165.402 1.38967 164.431 0.196762C163.46 -0.99615 155.886 3.44259 150.338 7.90907C149.838 8.3252 149.339 8.71359 148.867 9.10198C147.896 8.93553 145.871 8.60262 143.291 8.18649C143.319 8.18649 143.374 8.18649 143.402 8.18649L144.9 6.99358C145.094 6.85487 145.094 6.54971 144.9 6.35551L143.735 4.91292C143.569 4.69098 143.291 4.6355 143.097 4.80196L141.599 5.99486C141.599 5.99486 141.488 6.16132 141.46 6.27228L139.712 7.65939C137.521 7.29874 135.135 6.91035 132.777 6.52196L134.247 5.35679C134.441 5.21808 134.441 4.91292 134.247 4.71873L133.082 3.27613C132.916 3.0542 132.638 2.99872 132.444 3.16517L130.946 4.35808C130.946 4.35808 130.835 4.52453 130.807 4.6355L129.115 5.96712C123.123 4.99615 118.101 4.21937 117.935 4.27485C117.519 4.41356 115.383 6.24454 115.383 6.24454C114.855 6.66067 114.495 7.04907 114.523 7.10455C114.578 7.16004 115.188 6.7439 115.688 6.35551L126.701 10.3781C126.313 10.7388 126.091 11.0717 126.174 11.1826C126.285 11.3214 126.785 11.0717 127.284 10.6555L127.339 10.6001L129.503 11.4046C129.143 11.7375 128.921 12.0704 129.004 12.1814C129.115 12.3201 129.614 12.0704 130.114 11.6543L132.083 12.3478L133.276 13.2078C132.832 13.5962 132.527 13.9846 132.61 14.0956C132.721 14.2343 133.221 13.9846 133.72 13.5685H133.748L136.106 15.233C135.662 15.6214 135.357 16.0098 135.468 16.1207C135.579 16.2595 136.078 16.0098 136.578 15.5936L138.741 17.1472C135.052 20.1711 133.609 21.3917 130.863 23.6111C128.088 25.8305 125.564 28.1608 123.539 30.2415C120.265 29.7421 113.801 28.6602 113.801 28.6602L112.137 29.7699L119.155 35.2073C118.767 35.7344 118.462 36.1506 118.295 36.4835C117.214 37.4822 116.575 38.148 116.659 38.259C116.742 38.3699 117.519 37.9261 118.684 37.0938C119.045 36.9828 119.544 36.7331 120.182 36.428L123.983 44.5564L125.453 43.1971C125.453 43.1971 125.841 36.206 126.063 33.0157C128.449 31.5176 131.168 29.7421 133.998 27.7724C137.438 25.026 138.991 23.8608 142.181 21.364L143.208 23.8053C142.681 24.2492 142.348 24.6653 142.459 24.804C142.542 24.915 142.986 24.7208 143.485 24.3602L144.623 27.0511H144.595C144.068 27.495 143.735 27.9389 143.846 28.0499C143.929 28.1608 144.401 27.9666 144.872 27.606L145.455 28.9376L145.732 31.0183C145.205 31.4344 144.872 31.8783 144.983 32.017C145.067 32.128 145.427 31.9892 145.843 31.6841L146.149 33.9867H146.093C145.566 34.4305 145.233 34.8744 145.344 35.0131C145.427 35.1241 145.816 34.9576 146.232 34.6525L147.73 46.2764C147.258 46.6926 146.703 47.1919 146.731 47.2474C146.787 47.3029 147.23 47.0255 147.758 46.6093C147.758 46.6093 150.032 44.9171 150.227 44.5564C150.31 44.4177 150.643 39.3409 151.031 33.2931L152.723 31.9615C152.723 31.9615 152.945 31.9615 153.029 31.906L154.527 30.7131C154.721 30.5744 154.721 30.2692 154.527 30.075L153.362 28.6324C153.195 28.4105 152.918 28.355 152.723 28.5215L151.253 29.6866C151.392 27.3008 151.531 24.915 151.669 22.6679L153.417 21.2808C153.417 21.2808 153.639 21.2808 153.722 21.2253L155.22 20.0324C155.414 19.8937 155.414 19.5885 155.22 19.3943L154.055 17.9517C153.889 17.7298 153.611 17.6743 153.417 17.8408L151.919 19.0337C151.919 19.0337 151.919 19.0892 151.863 19.1446C152.03 16.5646 152.141 14.5394 152.196 13.5407C152.668 13.1523 153.167 12.7639 153.694 12.3478L153.833 12.2368Z" fill="#D1D1D1"/>
</svg>
